<?xml version="1.0" standalone="no"?>
<!DOCTYPE svg PUBLIC "-//W3C//DTD SVG 20010904//EN"
 "http://www.w3.org/TR/2001/REC-SVG-20010904/DTD/svg10.dtd">
<svg version="1.0" xmlns="http://www.w3.org/2000/svg"
 width="220.000000pt" height="172.000000pt" viewBox="0 0 220.000000 172.000000"
 preserveAspectRatio="xMidYMid meet">
<metadata>
Created by potrace 1.16, written by Peter Selinger 2001-2019
</metadata>
<g transform="translate(0.000000,172.000000) scale(0.100000,-0.100000)"
fill="#000000" stroke="none">
<path d="M0 1495 c0 -157 4 -232 12 -251 10 -22 10 -28 0 -32 -13 -4 -18 -133
-6 -145 4 -3 16 0 26 8 26 18 48 9 48 -20 0 -24 -17 -35 -56 -35 -31 0 -32
-30 -3 -48 16 -10 20 -20 16 -41 -6 -27 -5 -28 36 -28 23 -1 48 4 54 9 7 6 20
8 28 4 17 -6 21 -66 5 -94 -25 -44 -57 -151 -53 -175 3 -16 -1 -37 -11 -52 -9
-13 -16 -32 -16 -40 0 -16 -10 -15 -56 2 -10 4 -23 -25 -24 -49 0 -5 13 -8 30
-8 20 0 30 5 30 15 0 10 9 14 29 12 16 -1 27 -5 24 -9 -2 -5 5 -8 16 -8 12 0
21 -6 21 -12 0 -9 4 -8 10 2 9 13 11 13 20 0 8 -11 9 -7 3 15 -4 17 -6 39 -5
50 1 11 1 66 1 122 0 100 1 103 24 108 21 6 25 13 25 51 2 88 39 107 105 53
35 -29 49 -59 26 -59 -5 0 -8 -4 -5 -9 4 -6 21 -5 42 1 78 21 114 -21 52 -61
-18 -11 -29 -21 -24 -21 5 0 3 -7 -4 -15 -7 -8 -9 -15 -6 -15 4 0 2 -10 -5
-21 -9 -17 -8 -20 2 -14 9 6 11 3 6 -9 -4 -10 -7 -26 -7 -37 0 -10 -7 -19 -15
-19 -8 0 -15 -5 -15 -12 0 -8 -3 -8 -9 -3 -11 12 -16 94 -7 115 9 22 -27 115
-44 115 -10 0 -14 -8 -13 -23 2 -15 -1 -21 -8 -16 -8 5 -8 1 0 -14 27 -50 3
-120 -37 -109 -28 7 -39 -11 -18 -31 14 -14 17 -14 35 2 36 33 89 -7 57 -43
-13 -14 -13 -19 0 -36 10 -13 13 -31 9 -52 -3 -17 -3 -44 1 -59 l7 -26 13 32
c13 30 17 32 49 27 29 -5 35 -2 42 16 4 12 7 26 8 32 0 14 46 23 76 14 15 -4
31 -3 36 2 15 15 9 -44 -9 -83 -12 -27 -21 -36 -33 -32 -8 4 -22 1 -30 -6 -16
-13 -21 -35 -6 -26 5 4 7 -2 4 -13 -6 -25 -56 -61 -88 -63 -22 -2 -26 -7 -24
-33 3 -49 -11 -104 -26 -99 -10 4 -12 -1 -8 -15 6 -25 -3 -27 -24 -5 -10 9
-29 14 -51 12 -30 -3 -36 -7 -37 -28 -1 -14 5 -30 14 -37 13 -9 14 -14 3 -25
-10 -10 -14 -9 -18 9 -3 12 -13 23 -22 25 -13 2 -16 17 -17 66 -1 42 -5 66
-14 72 -11 6 -12 17 -4 49 9 33 8 41 -3 41 -8 0 -14 7 -14 15 0 46 -52 94 -71
64 -5 -9 2 -19 22 -31 34 -21 35 -31 9 -92 -10 -25 -17 -52 -14 -60 3 -8 -3
-31 -14 -53 -10 -21 -22 -49 -25 -63 -6 -23 -3 -25 26 -25 l32 0 -3 -57 -2
-58 89 0 90 0 -17 30 c-17 30 -32 39 -32 19 0 -5 -4 -7 -10 -4 -5 3 -10 2 -10
-4 0 -6 -9 -15 -20 -21 -17 -9 -20 -8 -20 13 0 34 39 54 71 36 13 -7 32 -12
42 -10 10 1 25 -3 34 -11 15 -12 16 -9 10 20 -10 50 1 82 28 82 27 0 49 -24
41 -45 -8 -22 11 -65 29 -65 9 0 15 9 15 24 0 32 24 56 50 49 19 -5 21 -11 14
-59 l-6 -54 46 0 c43 0 47 2 60 35 16 37 25 42 44 23 15 -15 25 -5 18 20 -8
24 -63 26 -70 3 -3 -10 -4 -8 -3 4 1 12 -8 33 -20 49 -19 24 -27 27 -54 21
-27 -6 -35 -3 -55 20 -27 32 -31 76 -9 95 8 7 15 24 15 37 0 23 3 25 31 19 25
-5 30 -3 28 12 -4 25 10 72 21 72 14 0 12 -12 -6 -38 -20 -28 -11 -28 16 0 21
23 20 24 24 -24 2 -19 19 -28 29 -15 5 8 7 5 6 -8 -2 -11 1 -46 5 -77 l7 -58
41 0 40 0 -6 -37 c-5 -32 -1 -43 24 -73 18 -21 30 -28 30 -19 0 23 25 53 38
45 8 -4 8 -15 1 -35 -9 -24 -17 -30 -56 -36 -56 -8 -73 -14 -73 -26 0 -16 60
-10 66 6 8 19 48 19 68 0 9 -10 34 -15 71 -15 52 0 56 2 55 23 -4 38 -1 47 15
47 21 0 29 -24 15 -49 -10 -19 -8 -21 20 -21 16 0 30 4 30 9 0 11 57 41 78 41
10 0 13 -8 10 -25 l-5 -25 126 0 127 0 9 32 c6 17 16 33 22 36 19 5 28 -28 14
-49 -11 -18 1 -19 384 -19 l395 0 0 860 0 860 -1100 0 -1100 0 0 -225z m959
-176 c16 -12 34 -18 40 -15 6 4 11 3 11 -2 0 -5 12 -7 28 -4 26 4 26 4 10 -14
-16 -16 -16 -18 0 -30 16 -13 16 -13 0 -14 -10 0 -18 -4 -18 -9 0 -7 12 -8 60
-2 10 2 7 5 -7 11 -27 11 -30 35 -7 44 28 11 32 7 31 -31 l-2 -38 -54 0 c-38
0 -56 4 -59 14 -3 9 0 11 9 6 8 -5 10 -4 6 0 -4 5 -14 10 -22 11 -16 2 -12 -9
13 -38 7 -9 11 -21 7 -27 -3 -7 0 -8 9 -5 18 7 22 -11 5 -22 -12 -7 -31 15
-23 27 2 5 -11 7 -31 6 -23 -1 -37 -8 -41 -19 -4 -14 -9 -15 -24 -6 -10 7 -19
19 -19 27 -5 100 -4 121 8 135 18 21 36 20 70 -5z m227 -64 c8 -16 8 -27 1
-34 -7 -7 -1 -8 21 -2 18 5 32 6 32 1 0 -4 -12 -11 -26 -14 -27 -7 -107 -66
-100 -74 3 -2 25 12 50 31 25 19 63 38 83 42 26 5 33 9 23 15 -12 7 -11 10 5
16 10 4 33 8 49 7 18 0 43 10 59 24 33 27 56 31 36 7 -12 -15 -11 -16 9 -10
27 9 31 -18 5 -33 -10 -6 -13 -11 -8 -11 6 0 16 5 21 10 15 15 44 2 37 -16 -3
-8 -2 -14 3 -13 5 1 16 1 24 -1 11 -1 9 -4 -5 -10 -19 -8 -19 -9 4 -9 17 -1
22 -5 17 -17 -4 -12 -2 -15 9 -10 9 3 15 0 15 -9 0 -8 8 -15 18 -15 14 0 15
-2 2 -10 -8 -5 -10 -10 -5 -10 6 0 3 -5 -5 -10 -18 -12 -33 -13 -27 -2 3 4
-14 7 -38 7 -24 0 -41 -3 -38 -7 2 -5 11 -8 19 -8 8 0 14 -4 14 -10 0 -5 6 -7
14 -4 7 3 17 -3 20 -13 4 -10 2 -19 -3 -21 -6 -2 -9 -8 -5 -13 3 -5 0 -9 -5
-9 -21 0 -11 -19 11 -22 22 -3 22 -3 2 -22 -17 -18 -19 -18 -22 -3 -2 9 -6 17
-8 17 -5 0 -85 -34 -120 -51 -12 -6 -32 -9 -45 -7 -13 2 -29 -4 -36 -12 -6 -8
-15 -11 -19 -7 -5 4 -3 12 5 16 9 6 -2 15 -36 31 -26 13 -56 32 -66 44 -14 16
-18 17 -13 4 4 -13 1 -16 -12 -12 -14 5 -13 3 2 -10 25 -21 7 -21 -22 0 -12 8
-27 12 -32 9 -14 -9 -62 23 -55 36 4 5 -1 12 -9 15 -9 3 -16 15 -16 26 0 23
46 72 60 63 6 -3 10 -2 10 4 0 5 -4 13 -10 16 -19 12 -11 45 10 45 11 0 20 5
20 10 0 6 5 10 11 10 5 0 8 -4 5 -8 -6 -10 30 -9 40 1 4 3 -1 18 -10 31 -9 14
-16 30 -16 35 0 18 35 0 46 -24z m-464 -60 c17 -38 20 -35 -45 -49 -16 -4 -32
-17 -39 -31 -6 -13 -14 -22 -19 -20 -4 3 -10 1 -13 -4 -11 -17 12 -22 28 -6
16 17 29 5 20 -18 -3 -9 -14 -14 -25 -12 -16 3 -19 0 -14 -15 7 -22 -10 -28
-19 -7 -7 13 -1 -20 11 -72 l9 -35 21 27 c18 23 22 25 33 12 11 -13 10 -14 -2
-10 -9 4 -22 -4 -32 -21 -15 -22 -16 -33 -7 -67 5 -23 8 -44 5 -46 -9 -9 -24
23 -25 54 -2 47 -14 82 -23 67 -15 -25 -25 -11 -22 33 2 25 -1 48 -5 51 -11 6
14 34 30 34 6 0 11 5 11 11 0 5 -4 7 -10 4 -6 -3 -7 1 -4 9 11 28 -4 17 -25
-20 -14 -23 -21 -52 -21 -85 0 -54 -7 -59 -33 -29 -20 24 -21 34 -4 52 6 8 17
21 22 30 6 9 32 49 59 90 78 116 110 133 138 73z m84 -120 c-2 -5 -12 -9 -22
-8 -10 1 -13 0 -6 -3 6 -3 10 -10 6 -15 -3 -5 3 -9 13 -10 10 0 13 -3 6 -6 -7
-2 -13 -9 -13 -14 0 -6 5 -7 11 -3 6 3 28 2 48 -4 20 -6 52 -15 71 -20 l35
-10 -46 -1 c-31 -1 -58 -9 -82 -25 -63 -43 -77 -49 -92 -36 -9 8 -11 19 -5 41
5 17 5 29 -1 29 -5 0 -9 -12 -9 -26 0 -16 -5 -24 -12 -21 -7 2 -13 8 -13 13 0
6 -16 24 -35 41 l-35 32 23 16 c12 9 22 23 22 31 0 8 7 14 16 14 13 0 11 -7
-10 -35 -15 -19 -25 -35 -24 -35 2 0 28 22 57 50 52 49 53 49 77 32 13 -9 22
-21 20 -27z m-636 10 c11 -30 40 -33 40 -5 0 24 26 38 42 22 7 -7 6 -17 -2
-33 -7 -12 -14 -40 -15 -60 -5 -57 -11 -62 -69 -55 -60 7 -92 36 -76 67 6 10
15 19 21 19 5 0 9 6 8 13 -1 6 -1 22 0 35 1 31 39 30 51 -3z m980 -186 c18
-17 35 -27 39 -22 9 12 63 35 69 29 3 -3 -12 -13 -33 -21 -20 -9 -35 -18 -33
-21 3 -2 35 9 71 26 37 16 72 30 79 30 7 -1 -20 -16 -59 -35 -40 -18 -73 -38
-73 -44 0 -9 34 3 128 46 19 8 36 12 40 9 9 -9 -8 -20 -53 -35 -68 -21 -95
-33 -95 -41 0 -9 46 1 133 31 68 23 89 24 62 3 -20 -15 -84 -36 -124 -40 -33
-4 -51 -12 -51 -22 0 -12 98 3 144 23 21 9 41 14 44 11 8 -8 -79 -46 -108 -46
-14 0 -32 -5 -40 -11 -11 -7 -4 -8 25 -4 29 4 35 3 20 -4 -41 -19 -59 -11
-132 66 -40 42 -71 69 -67 60 4 -12 1 -17 -10 -17 -9 0 -16 4 -16 8 0 5 -13
24 -30 42 -16 18 -30 37 -30 41 0 12 63 -28 100 -62z m-131 19 c33 -20 33 -59
0 -93 -16 -17 -29 -36 -29 -43 0 -7 -4 -12 -9 -12 -6 0 -3 -16 5 -35 16 -39
17 -45 7 -45 -5 0 -17 18 -27 40 -11 22 -21 38 -23 36 -3 -2 3 -19 12 -36 13
-25 14 -34 5 -40 -7 -4 -10 -12 -6 -18 3 -5 -1 -15 -9 -22 -13 -10 -16 -8 -21
18 -4 19 -16 34 -33 43 -25 12 -32 14 -57 17 -13 2 -34 46 -34 70 1 13 4 11
14 -7 8 -15 16 -20 20 -12 4 6 2 11 -4 11 -6 0 -10 8 -8 18 2 11 -5 18 -20 20
-28 4 -24 23 7 38 12 6 34 23 49 36 15 14 34 28 42 31 22 9 96 0 119 -15z
m214 -145 c32 -35 57 -68 57 -75 -1 -7 -7 -1 -15 13 -30 55 -117 64 -175 18
-27 -22 -44 -29 -59 -24 -32 10 -25 34 24 78 25 22 45 49 45 59 0 10 5 18 10
18 6 0 10 -9 10 -19 0 -30 11 -51 26 -51 15 0 19 16 6 22 -5 2 -12 16 -16 31
-7 28 -6 28 12 10 10 -10 44 -46 75 -80z m-593 7 c0 -5 18 -19 40 -30 48 -25
51 -32 8 -19 -43 12 -47 5 -6 -11 36 -15 105 -76 95 -86 -6 -6 -72 12 -97 28
-8 4 -23 11 -32 14 -10 4 -18 13 -18 20 0 8 -4 14 -10 14 -5 0 -16 12 -24 28
-9 16 -15 21 -16 11 0 -8 7 -24 15 -35 8 -10 15 -27 15 -37 0 -11 5 -15 11
-11 6 3 24 -3 40 -15 15 -11 32 -21 38 -21 5 0 11 -7 15 -15 8 -22 -10 -18
-33 6 -11 12 -25 18 -31 14 -6 -4 -17 -1 -25 5 -8 6 -20 8 -26 4 -7 -4 -9 -3
-6 3 4 6 0 19 -9 29 -15 18 -15 18 -6 -1 5 -11 6 -31 2 -45 -6 -25 -6 -25 -12
5 -8 38 1 115 15 133 6 7 16 11 24 8 7 -3 13 -1 13 4 0 6 5 10 10 10 6 0 10
-4 10 -10z m638 -104 c13 -12 13 -16 2 -16 -7 0 -10 -3 -7 -7 4 -3 2 -12 -4
-20 -14 -17 3 -17 20 0 11 10 12 8 6 -12 -5 -16 -4 -21 4 -17 6 4 11 16 11 26
0 16 13 11 82 -32 130 -80 195 -131 125 -97 -12 5 -5 -5 16 -24 30 -26 35 -34
20 -34 -10 0 -21 5 -25 11 -5 8 -8 7 -8 -1 0 -7 -5 -13 -11 -13 -6 0 -8 7 -5
16 3 8 2 13 -3 10 -5 -3 -14 1 -22 10 -7 8 -22 20 -33 26 -15 7 -12 1 9 -18
24 -24 26 -29 12 -32 -9 -2 -31 10 -48 27 -17 17 -36 31 -42 31 -6 0 -1 -7 11
-16 12 -8 20 -19 17 -24 -3 -5 4 -11 15 -15 11 -4 18 -10 15 -15 -5 -8 11 -7
42 2 6 1 19 -6 27 -17 12 -16 18 -17 24 -7 7 10 11 10 22 -3 11 -13 10 -14 -4
-9 -13 5 -15 2 -10 -12 6 -16 4 -16 -18 4 -36 33 -46 27 -13 -8 16 -16 23 -30
17 -30 -7 0 -15 0 -19 0 -5 0 -8 3 -8 8 -1 18 -27 52 -41 52 -12 0 -12 -3 2
-25 9 -13 14 -30 12 -37 -6 -16 -90 72 -125 130 -14 24 -27 41 -30 38 -7 -7
74 -161 83 -158 5 2 10 -2 12 -10 3 -10 2 -10 -6 1 -12 17 -23 -1 -11 -19 5
-8 8 -22 8 -30 0 -8 -4 -5 -9 8 -5 12 -15 22 -22 22 -13 0 -27 31 -72 159 -18
50 -24 59 -29 43 -3 -12 -2 -20 2 -18 4 3 8 -5 8 -16 2 -20 2 -20 -11 -2 -14
21 -31 82 -28 101 2 6 -2 14 -8 18 -6 4 -8 -7 -5 -31 5 -38 -10 -37 -17 0 -1
11 -9 21 -16 22 -7 1 -8 0 -2 -3 5 -2 9 -14 9 -26 -1 -17 -2 -18 -6 -4 -5 19
-23 24 -23 5 0 -6 -6 -4 -13 7 -10 13 -16 15 -21 6 -4 -6 -3 -17 2 -24 5 -7
12 -29 15 -49 5 -36 5 -36 -14 -17 -10 10 -19 26 -19 34 0 8 -6 12 -14 9 -8
-3 -17 -1 -21 5 -4 7 3 11 17 11 22 1 22 1 3 12 -32 18 -49 58 -25 58 5 0 6
-7 3 -17 -4 -11 -3 -14 5 -9 18 11 14 26 -10 35 -19 7 -17 8 15 14 20 3 46 14
57 25 17 15 29 18 66 12 25 -4 53 -14 62 -24z m-155 -191 c20 -14 37 -28 37
-31 0 -3 -4 -3 -9 0 -10 6 -24 -42 -19 -63 5 -21 -29 -38 -44 -23 -10 10 -10
17 0 33 7 11 10 24 7 29 -8 13 -65 13 -65 0 0 -14 -78 -9 -90 5 -12 14 15 55
36 55 8 0 14 3 14 8 0 4 12 15 28 24 24 15 29 15 47 2 11 -8 37 -25 58 -39z"/>
</g>
</svg>
