<?xml version="1.0" standalone="no"?>
<!DOCTYPE svg PUBLIC "-//W3C//DTD SVG 20010904//EN"
 "http://www.w3.org/TR/2001/REC-SVG-20010904/DTD/svg10.dtd">
<svg version="1.0" xmlns="http://www.w3.org/2000/svg"
 width="500.000000pt" height="325.000000pt" viewBox="0 0 500.000000 325.000000"
 preserveAspectRatio="xMidYMid meet">
<metadata>
Created by potrace 1.16, written by Peter Selinger 2001-2019
</metadata>
<g transform="translate(0.000000,325.000000) scale(0.100000,-0.100000)"
fill="#000000" stroke="none">
<path d="M0 3165 l0 -85 28 0 c61 0 157 -39 196 -80 43 -45 54 -48 79 -20 21
25 67 26 95 2 l21 -18 -33 -12 c-18 -7 -53 -12 -79 -12 -26 0 -47 -4 -47 -9 0
-8 -30 -23 -50 -26 -3 0 -10 -3 -15 -7 -13 -8 -110 -2 -157 10 -38 10 -38 10
-38 -22 0 -27 4 -32 26 -34 14 -1 34 -6 44 -12 10 -5 53 -10 94 -10 49 0 78
-4 83 -12 18 -28 59 -41 122 -40 64 2 65 3 119 57 29 30 62 57 72 60 27 9 69
-12 79 -38 12 -30 34 -39 67 -27 33 13 34 13 34 -5 0 -9 -12 -20 -27 -26 -16
-6 -35 -17 -44 -25 -26 -23 -83 -19 -100 7 -6 10 -13 11 -22 4 -8 -5 -25 -18
-38 -27 -22 -15 -142 -45 -208 -52 -15 -1 -36 6 -48 17 -14 12 -42 22 -73 25
-43 4 -55 1 -75 -18 -18 -17 -33 -21 -64 -18 l-41 4 0 -263 0 -263 24 0 c13 0
26 -7 30 -15 4 -11 -2 -14 -24 -11 l-30 3 0 -968 c0 -866 2 -969 15 -969 9 0
34 -9 55 -20 33 -17 40 -25 40 -51 0 -26 -3 -30 -23 -25 -12 3 -16 3 -9 0 23
-11 12 -22 -21 -21 -17 1 -33 8 -33 15 -3 25 -5 27 -14 12 -5 -8 -10 -43 -10
-77 l0 -63 210 0 210 0 44 32 c25 18 45 39 45 45 1 19 -49 29 -61 12 -7 -11
-11 -11 -15 -1 -2 6 -14 12 -26 12 -21 -1 -21 -1 -3 -11 14 -9 15 -13 6 -19
-20 -12 -37 -2 -44 26 -4 13 -12 24 -19 25 -6 0 -3 4 8 8 18 7 18 9 -7 25 -14
9 -48 20 -76 25 -28 4 -58 16 -67 25 -10 10 -28 24 -41 33 -13 8 -21 19 -18
24 3 5 39 32 79 59 52 35 84 50 107 50 18 0 100 12 182 27 188 34 192 32 218
-77 25 -106 22 -120 -29 -138 -24 -7 -43 -18 -43 -22 0 -17 22 -22 46 -10 21
12 26 11 44 -13 17 -22 26 -25 53 -20 41 8 39 6 28 36 -10 27 -6 38 12 31 10
-3 14 -64 7 -84 -2 -3 -2 -8 -2 -11 1 -3 -22 -6 -51 -5 -45 1 -52 -2 -52 -18
0 -11 -6 -21 -13 -24 -6 -2 -12 1 -12 6 0 6 -9 14 -20 17 -11 3 -27 13 -35 21
-8 9 -28 19 -44 24 -25 7 -33 4 -55 -19 -18 -19 -25 -36 -23 -59 l2 -32 627 0
c344 0 633 3 642 6 16 6 23 34 8 34 -5 0 -17 7 -28 16 -16 13 -16 15 -1 10 25
-8 22 -2 -24 45 -40 41 -42 41 -92 36 -28 -4 -53 -10 -56 -14 -3 -5 -22 -8
-41 -8 -32 0 -35 2 -36 33 -1 18 -6 38 -13 45 -20 20 -13 40 12 32 12 -4 40
-10 62 -13 28 -5 43 -14 50 -29 11 -26 61 -38 99 -23 15 5 50 10 77 10 46 0
51 -2 63 -31 7 -17 24 -38 38 -47 88 -59 105 -71 117 -86 12 -14 48 -16 325
-15 171 0 304 3 296 6 -8 3 -21 10 -28 16 -24 19 -167 33 -177 17 -3 -6 -11
-10 -16 -10 -6 0 -8 4 -5 8 2 4 -11 6 -31 4 -25 -3 -34 -1 -29 7 4 6 15 11 24
11 10 0 35 9 57 20 25 13 59 20 92 20 29 0 53 4 53 9 0 16 -28 32 -64 38 -20
3 -36 11 -36 18 0 7 -8 16 -17 20 -22 9 -103 16 -103 9 0 -3 20 -14 45 -25 51
-22 56 -34 21 -43 -14 -3 -46 -24 -71 -46 -39 -34 -53 -40 -91 -40 -41 0 -46
3 -61 35 -16 33 -16 36 4 57 11 13 28 37 37 53 16 27 16 33 2 59 -8 16 -13 33
-10 37 3 5 -2 22 -10 38 -15 28 -18 29 -51 20 -46 -13 -80 -8 -81 11 -1 8 -2
20 -2 26 -3 15 -78 48 -91 40 -6 -4 -11 -20 -11 -36 0 -34 -36 -50 -114 -50
-47 0 -52 2 -62 28 -10 27 -16 29 -75 35 -81 7 -212 38 -222 52 -9 12 2 143
14 168 16 29 47 20 74 -23 22 -35 30 -40 61 -40 20 0 48 7 64 16 40 24 80 12
80 -24 0 -18 9 -37 25 -50 14 -12 25 -30 25 -40 0 -26 18 -40 46 -34 37 7 31
38 -11 52 -35 11 -47 34 -22 43 15 5 -17 44 -44 52 -21 7 -58 81 -68 135 -4
24 -16 41 -38 55 -61 38 -33 77 47 68 34 -4 49 -1 59 11 8 10 29 16 52 16 42
0 49 -12 46 -74 -2 -27 2 -31 43 -41 43 -10 47 -14 77 -78 18 -37 38 -70 45
-72 7 -3 45 -8 83 -12 62 -7 70 -10 73 -31 2 -12 6 -22 10 -22 4 0 7 -41 7
-90 0 -50 3 -90 7 -90 3 0 5 -14 4 -30 -1 -17 1 -30 5 -30 3 0 17 -11 30 -23
31 -31 86 -50 95 -34 4 7 4 9 -1 5 -7 -7 -28 13 -65 58 -5 7 -6 15 -2 19 4 4
2 6 -3 5 -26 -6 -36 1 -30 19 3 11 2 22 -3 25 -12 7 -3 54 11 63 6 4 8 0 4
-11 -4 -9 -3 -15 2 -11 10 5 61 -79 61 -101 0 -7 8 -15 18 -18 10 -4 28 -15
40 -26 25 -24 135 -40 146 -21 4 7 0 10 -11 9 -34 -3 -54 2 -48 11 3 5 -15 24
-40 42 -52 38 -77 72 -69 93 9 23 24 20 59 -13 28 -27 112 -70 100 -52 -2 5 2
11 10 15 8 3 15 10 15 16 0 6 -6 8 -12 4 -10 -5 -10 -4 -2 5 14 15 64 24 64
11 0 -5 10 0 22 12 13 13 22 28 20 34 -3 14 42 24 60 13 10 -7 9 -14 -6 -39
-10 -17 -19 -52 -19 -78 l-2 -47 38 0 c27 0 36 -4 32 -14 -3 -7 -2 -35 1 -62
8 -58 33 -73 67 -41 12 11 40 28 62 39 34 16 45 17 75 6 19 -6 30 -12 24 -12
-6 -1 -9 -11 -7 -25 5 -22 2 -23 -64 -28 -41 -3 -84 -13 -110 -27 -50 -25 -73
-27 -73 -5 0 8 -16 22 -36 30 -33 14 -38 14 -62 -2 -53 -35 -54 -38 -12 -81
l40 -40 125 -2 124 -2 15 35 c26 62 97 75 109 19 9 -42 22 -55 48 -51 20 3 21
5 8 18 -8 8 -34 44 -58 80 -34 51 -40 66 -27 68 12 3 1 24 -44 92 -33 49 -64
91 -70 95 -6 3 -7 11 -4 17 4 6 0 14 -7 19 -13 8 -6 11 17 8 4 0 10 4 13 10
12 19 57 -31 122 -134 42 -67 57 -76 80 -49 11 14 11 18 -4 29 -21 15 -21 19
0 40 15 16 14 18 -14 41 -17 13 -36 36 -42 52 -11 27 -14 28 -65 24 -48 -4
-55 -2 -61 17 -3 11 -3 30 0 41 8 24 -9 48 -43 61 -27 10 -21 26 16 40 22 8
30 5 58 -22 30 -29 40 -33 121 -39 125 -11 236 -57 163 -68 -21 -4 -27 -17
-11 -27 6 -3 29 -8 53 -11 24 -2 58 -7 77 -10 30 -5 33 -3 26 13 -18 41 -11
58 23 61 27 3 39 -3 65 -31 36 -38 88 -60 122 -51 13 3 40 -2 60 -12 35 -16
38 -16 66 0 26 15 36 16 86 5 62 -14 196 -79 195 -94 -2 -17 -40 -17 -92 0
-65 21 -101 17 -117 -15 -10 -21 -21 -26 -65 -30 -42 -4 -57 -1 -70 13 -10 9
-18 21 -18 25 0 5 -11 14 -25 20 -14 7 -28 19 -31 27 -5 11 -22 15 -67 15 -55
0 -64 -3 -94 -32 -36 -35 -58 -38 -163 -24 l-55 8 37 -26 c24 -17 50 -26 76
-26 46 0 78 -20 69 -44 -5 -13 0 -16 32 -16 30 0 40 5 51 25 25 47 109 20 124
-40 3 -13 19 -31 34 -39 15 -8 36 -23 46 -35 29 -32 50 -28 43 9 -5 24 -2 33
22 50 16 11 33 20 39 20 5 0 15 7 22 15 27 33 130 5 130 -36 0 -11 -11 -31
-25 -45 -14 -14 -25 -36 -25 -49 0 -16 -9 -29 -28 -39 -25 -14 -17 -15 111
-16 75 0 137 2 137 3 0 10 -39 47 -49 47 -7 0 -21 -9 -33 -20 -23 -21 -48 -27
-48 -10 0 6 -7 10 -15 10 -16 0 -18 8 -15 55 3 41 27 65 66 65 49 0 110 -27
122 -56 7 -13 18 -24 25 -24 8 0 22 -9 33 -21 16 -18 27 -20 74 -16 30 3 56
10 58 16 7 22 92 8 92 -15 0 -12 69 -39 77 -30 2 2 -1 16 -7 31 -7 20 -7 31 1
41 21 26 46 15 73 -31 24 -40 31 -45 63 -45 41 0 73 29 73 66 0 37 20 39 50 5
16 -17 35 -31 41 -31 29 0 -9 -19 -56 -28 -46 -9 -42 -10 53 -11 67 -1 101 3
97 9 -3 6 -13 10 -21 10 -11 0 -14 8 -12 28 3 24 7 27 46 30 l42 3 0 711 0
710 -37 -6 c-21 -3 -45 -6 -53 -7 -81 -4 -174 -22 -201 -37 -30 -16 -34 -24
-36 -62 -1 -23 -6 -47 -11 -52 -13 -13 -47 6 -68 37 -12 19 -20 22 -37 16 -24
-9 -45 -8 -95 3 -25 6 -38 4 -52 -9 -14 -13 -28 -16 -54 -11 -57 11 -192 -12
-309 -53 -119 -41 -124 -51 -32 -71 75 -17 217 -59 224 -66 3 -4 -10 -4 -29 0
-70 15 -231 32 -235 26 -3 -4 19 -14 48 -23 28 -8 114 -34 190 -56 76 -23 172
-59 213 -81 42 -22 82 -40 90 -40 8 0 14 -7 14 -16 0 -9 -3 -14 -8 -12 -4 2
-27 13 -52 24 -40 19 -100 39 -352 113 -36 11 -94 25 -128 31 -34 6 -68 14
-76 17 -8 3 -14 1 -14 -4 0 -4 30 -17 68 -27 155 -44 432 -156 432 -175 0 -11
-41 0 -269 75 -91 29 -166 52 -168 51 -1 -2 64 -29 145 -61 166 -66 339 -144
363 -163 8 -7 18 -13 22 -13 16 0 137 -93 137 -106 0 -3 -12 1 -26 11 -14 9
-33 18 -42 20 -22 5 -136 51 -188 75 -51 25 -53 25 -47 0 4 -14 -1 -21 -21
-26 -14 -3 -26 -9 -26 -13 0 -12 38 -39 46 -33 4 4 4 -1 1 -11 -4 -10 -3 -16
2 -13 9 6 84 -13 91 -23 3 -4 20 -13 38 -20 17 -8 32 -17 32 -21 0 -14 -33
-21 -41 -9 -4 7 -12 8 -20 3 -19 -12 -59 -14 -59 -3 0 5 -10 8 -22 8 -79 -2
-238 34 -238 54 0 5 -7 6 -15 3 -14 -5 -30 0 -75 26 -8 4 -26 12 -40 18 -14 5
-38 17 -54 25 -44 24 -41 12 4 -20 22 -15 40 -31 40 -35 0 -9 -51 9 -100 34
-155 82 -192 103 -245 136 -63 40 -113 60 -101 42 4 -6 24 -21 46 -33 22 -13
40 -26 40 -29 0 -4 6 -7 13 -7 13 -1 172 -91 221 -126 18 -12 24 -23 17 -25
-7 -2 -20 3 -29 11 -9 8 -30 21 -47 29 -73 38 -153 84 -183 106 -29 22 -119
72 -129 72 -2 0 5 -10 17 -22 28 -31 17 -34 -27 -7 -80 49 -92 82 -65 183 7
24 7 38 0 42 -7 4 -7 9 1 13 13 9 -17 68 -54 105 -14 14 -25 34 -25 44 0 20
-25 36 -41 27 -5 -4 -7 8 -5 24 2 17 -1 31 -5 31 -5 0 -9 -4 -9 -10 0 -5 -5
-10 -11 -10 -7 0 -9 10 -4 28 5 22 4 25 -6 15 -22 -22 -28 -15 -23 25 9 66 14
83 24 77 6 -3 10 0 10 8 0 25 40 97 54 97 8 0 17 14 21 30 7 34 21 39 30 11 7
-23 -11 -72 -32 -88 -9 -7 -12 -13 -6 -13 5 0 22 11 36 24 15 14 34 29 42 33
13 8 13 15 4 43 -7 19 -17 38 -23 42 -7 5 -7 8 -1 8 6 0 3 5 -5 10 -8 5 -10
10 -4 10 14 0 9 84 -7 122 -6 15 -9 35 -5 43 3 8 1 27 -5 42 -7 19 -7 29 0 31
6 2 9 8 5 13 -9 15 -35 -19 -32 -43 2 -15 -5 -26 -22 -35 -24 -12 -26 -11 -43
29 l-18 42 -19 -32 c-19 -31 -40 -43 -40 -22 0 6 5 10 11 10 6 0 9 16 7 38 -3
32 -6 37 -25 35 -19 -2 -23 2 -23 27 0 21 -5 30 -17 30 -9 0 -14 -3 -10 -6 7
-7 -6 -24 -53 -70 -30 -29 -36 -31 -41 -16 -4 11 1 22 13 31 15 10 17 16 8 25
-8 8 -16 5 -30 -13 -18 -25 -18 -25 -13 40 9 104 -32 218 -72 203 -18 -7 -20
-30 -3 -40 7 -4 8 -3 4 4 -4 7 -2 12 4 12 7 0 10 -6 7 -12 -2 -7 2 -21 11 -30
8 -10 10 -18 5 -18 -6 0 -16 7 -23 15 -6 8 -24 13 -39 12 -25 -2 -30 -8 -46
-61 -14 -49 -15 -66 -6 -98 14 -45 34 -57 60 -34 24 22 41 20 41 -3 0 -11 5
-23 10 -26 6 -3 10 -10 10 -15 0 -14 -71 -80 -87 -80 -23 0 -14 19 12 26 14 3
35 20 47 37 12 17 15 26 7 21 -7 -5 -18 -9 -24 -9 -5 -1 -9 -6 -7 -13 1 -7 -9
-12 -23 -12 -14 0 -25 -4 -25 -10 0 -5 -4 -10 -10 -10 -5 0 -9 9 -7 19 1 11
-2 20 -8 20 -16 -1 -24 33 -24 114 -1 45 3 77 9 77 6 0 10 9 10 19 0 11 -4 23
-10 26 -5 3 -10 15 -10 25 0 28 -26 15 -38 -18 -6 -15 -18 -36 -28 -47 -11
-11 -25 -33 -32 -48 -8 -19 -18 -27 -27 -23 -9 3 -15 0 -15 -8 0 -23 12 -46
20 -41 5 3 12 -9 15 -27 4 -18 11 -35 16 -38 5 -4 12 -21 15 -40 6 -28 5 -32
-9 -27 -20 8 -24 -22 -5 -41 9 -9 6 -12 -15 -12 -15 0 -27 -5 -27 -12 0 -6 -3
-8 -7 -5 -3 4 -11 -3 -18 -16 -6 -12 -17 -21 -24 -19 -7 1 -10 -2 -6 -8 3 -5
2 -10 -4 -10 -6 0 -17 -12 -25 -27 -8 -16 -15 -22 -16 -15 0 17 -16 15 -40 -5
-14 -12 -16 -20 -9 -29 8 -9 5 -11 -8 -8 -13 4 -27 -5 -43 -25 -12 -17 -29
-31 -35 -31 -7 0 -15 -14 -19 -31 -3 -17 -10 -28 -16 -24 -5 3 -10 1 -10 -4 0
-6 -10 -11 -21 -11 -19 0 -20 -2 -8 -17 13 -15 12 -15 -8 -4 -21 11 -22 10
-13 -13 7 -19 5 -26 -7 -30 -9 -4 -18 -4 -21 -1 -3 3 0 5 7 5 7 0 9 5 6 10 -5
8 -11 8 -20 0 -9 -7 -16 -6 -25 5 -11 13 -15 13 -21 3 -6 -9 -35 -12 -106 -11
-95 3 -155 -6 -201 -29 -38 -19 -158 4 -193 38 -16 15 -29 22 -29 15 0 -7 -4
-9 -10 -6 -13 8 -13 -16 1 -68 6 -23 27 -62 48 -87 42 -48 68 -54 146 -32 37
11 195 98 217 120 6 6 27 8 47 5 43 -6 81 10 81 33 0 22 19 7 32 -24 14 -35
16 -93 3 -88 -5 2 -18 -1 -28 -6 -16 -8 -18 -7 -9 8 12 22 4 56 -12 47 -6 -4
-22 -9 -36 -11 -41 -5 -50 -10 -60 -37 -5 -14 -16 -25 -25 -25 -8 0 -15 -4
-15 -9 0 -5 -17 -17 -37 -26 -21 -10 -56 -26 -78 -37 -22 -11 -63 -21 -92 -23
-28 -2 -60 -8 -70 -13 -32 -18 -82 17 -126 86 -37 58 -51 111 -57 215 0 4 -3
6 -7 5 -18 -5 -53 14 -53 28 0 12 9 14 45 8 l45 -6 0 39 c0 38 -2 41 -50 63
-28 13 -50 27 -50 32 0 12 22 9 50 -7 45 -26 60 -20 60 25 0 32 -6 47 -27 66
l-28 26 32 -6 c35 -6 43 5 43 55 0 20 -9 35 -30 51 -16 12 -30 25 -30 30 0 15
30 8 50 -12 19 -19 19 -19 30 18 14 50 13 55 -10 72 -11 8 -20 20 -20 27 0 21
30 15 38 -8 7 -18 10 -16 25 17 10 20 24 68 32 106 18 82 18 81 5 73 -19 -12
-14 68 6 107 18 35 47 54 110 73 38 11 59 26 94 67 61 72 88 113 120 183 56
125 161 270 317 439 46 49 83 93 83 98 0 4 -574 8 -1275 8 l-1275 0 0 -85z
m223 -776 c23 1 28 -3 33 -29 4 -16 11 -30 16 -30 5 0 6 -5 3 -11 -4 -6 -9 -8
-12 -5 -3 2 -21 -1 -41 -8 -43 -15 -66 -13 -144 16 -33 12 -58 27 -58 35 0 25
60 43 120 37 30 -4 67 -6 83 -5z m392 -799 c4 -6 21 -8 38 -5 26 5 37 1 56
-19 24 -26 24 -26 5 -41 -19 -14 -19 -14 2 -15 30 0 46 23 38 54 -8 35 12 41
67 21 24 -9 58 -20 74 -24 45 -12 105 -42 105 -53 0 -13 -79 1 -105 18 -22 16
-65 19 -65 4 0 -5 19 -14 43 -21 49 -13 66 -25 78 -55 5 -15 18 -24 36 -26 20
-2 28 -9 29 -23 2 -28 22 -75 33 -75 4 0 14 7 21 15 10 13 10 19 -5 35 -10 11
-15 26 -11 35 5 14 16 16 71 10 45 -5 65 -4 65 4 0 7 23 11 63 11 51 0 68 -4
82 -20 10 -11 24 -20 30 -20 7 0 18 -7 25 -15 7 -8 20 -15 29 -15 10 0 28 -11
41 -25 13 -14 32 -25 42 -25 10 0 18 -7 18 -15 0 -7 8 -19 18 -24 15 -10 15
-12 2 -24 -17 -14 -24 -37 -11 -37 21 0 65 -82 70 -132 1 -3 17 -16 35 -28 39
-24 53 -54 36 -75 -18 -22 -44 -18 -100 15 -28 17 -55 30 -60 30 -8 0 -116
158 -127 186 -8 22 -26 16 -20 -7 6 -24 17 -26 -126 26 -110 39 -127 42 -127
20 0 -13 -4 -14 -21 -5 -16 9 -24 8 -37 -2 -32 -28 -95 -59 -107 -54 -7 2 -28
26 -46 53 -18 26 -45 63 -61 81 -23 27 -26 37 -18 52 6 11 7 20 3 20 -4 0 -18
3 -30 6 -16 4 -21 2 -20 -12 2 -20 -35 -33 -101 -36 -85 -3 -76 45 11 59 49 8
29 21 -31 21 -38 0 -50 6 -74 31 -16 17 -37 31 -47 31 -19 0 -44 24 -54 50 -3
9 -6 3 -6 -12 -1 -31 5 -29 -149 -54 -108 -17 -135 -15 -126 10 17 45 142 80
175 50 17 -16 21 -15 54 10 19 15 39 25 44 22 5 -3 24 1 42 9 40 17 95 19 104
5z m-95 -204 c52 -4 81 -20 126 -68 41 -42 124 -162 124 -177 0 -4 9 -16 20
-26 12 -11 19 -29 18 -51 -1 -35 16 -64 37 -64 14 0 68 -40 62 -47 -3 -2 -24
4 -48 13 -32 13 -44 15 -47 6 -2 -7 -17 -19 -33 -27 -26 -14 -29 -20 -29 -68
0 -29 -7 -79 -15 -110 -8 -32 -15 -67 -15 -78 0 -18 -4 -20 -32 -14 -18 4 -51
14 -73 22 -22 8 -89 30 -150 50 -97 31 -132 49 -120 61 4 4 202 -59 274 -87
29 -12 56 -20 59 -17 2 3 9 47 14 98 12 119 -10 222 -37 178 -8 -12 -65 -13
-65 -1 0 11 25 21 56 21 32 0 32 30 -1 103 -32 73 -89 135 -145 160 -25 11
-53 28 -62 37 -22 23 -119 35 -177 21 -51 -11 -68 -7 -77 21 -8 25 -5 27 53
44 44 12 140 13 283 0z m599 -187 c17 -16 22 -30 19 -55 -4 -32 -2 -34 27 -34
l30 -1 -34 -28 c-34 -28 -34 -28 -23 -74 16 -60 16 -61 -10 -43 -12 9 -34 16
-48 16 -30 0 -70 -25 -70 -44 0 -19 30 -43 63 -51 20 -6 25 -11 18 -18 -16
-16 -13 -25 12 -32 59 -19 90 -92 48 -115 -35 -18 -71 -11 -103 20 -26 26 -29
35 -24 65 5 27 4 35 -7 35 -16 0 -25 26 -38 115 -19 127 -22 165 -10 165 6 0
11 16 11 35 0 27 6 37 28 49 39 22 84 20 111 -5z m258 -120 c62 -20 114 -59
80 -59 -29 0 -29 -20 2 -56 30 -33 43 -90 20 -82 -6 2 -11 8 -11 13 0 17 -18
45 -29 45 -6 0 -5 -8 2 -21 9 -18 8 -24 -5 -31 -21 -12 -20 -42 0 -74 9 -13
14 -27 11 -31 -4 -3 -50 14 -103 38 -109 49 -144 82 -144 135 0 30 5 37 32 48
30 13 30 14 11 25 -11 6 -24 18 -27 27 -18 46 60 58 161 23z"/>
<path d="M3787 3243 c-13 -13 -7 -35 8 -29 20 7 21 -37 1 -56 -18 -18 -59 -99
-53 -104 2 -3 16 1 31 7 50 23 48 -3 -5 -65 -27 -32 -48 -60 -47 -62 2 -1 30
6 63 17 54 18 72 33 185 147 69 70 134 133 145 139 16 9 -15 12 -151 12 -94 1
-174 -2 -177 -6z"/>
<path d="M4190 3240 c0 -6 -23 -42 -51 -81 -56 -76 -58 -97 -7 -55 78 62 94
74 116 81 42 12 23 -16 -83 -121 -97 -97 -118 -124 -96 -124 4 0 48 26 97 59
104 68 134 81 130 54 -3 -18 -68 -77 -184 -165 -58 -45 -76 -68 -52 -68 6 0
53 20 104 44 105 50 166 66 166 45 0 -17 -67 -62 -185 -123 -84 -45 -138 -87
-118 -93 5 -2 60 15 123 38 122 44 200 57 200 34 0 -24 -95 -76 -163 -89 -44
-8 -114 -37 -142 -60 -20 -15 -20 -15 1 -16 11 0 54 8 95 19 65 16 125 27 208
37 14 1 33 -2 44 -7 17 -10 17 -12 -9 -37 -14 -15 -34 -27 -43 -27 -9 -1 -15
-5 -14 -10 1 -6 -20 -10 -45 -11 -51 -1 -238 -30 -253 -39 -22 -14 -7 -27 24
-21 35 8 63 12 147 22 99 11 125 12 135 6 11 -7 17 -8 53 -10 12 -1 22 -7 22
-13 0 -5 -4 -8 -9 -5 -5 3 -14 -1 -21 -9 -10 -13 -8 -15 13 -15 36 0 60 -26
47 -51 -12 -22 -14 -23 -55 -8 -25 10 -39 9 -64 -2 -17 -8 -31 -17 -31 -21 0
-13 70 -38 139 -49 36 -5 73 -17 81 -25 13 -14 13 -17 -4 -30 -22 -15 -78 -17
-214 -5 -84 6 -84 6 -104 -21 -16 -23 -27 -28 -62 -28 -35 0 -53 -8 -108 -50
-43 -33 -71 -62 -82 -87 -9 -21 -30 -54 -46 -74 -17 -19 -33 -47 -35 -60 -3
-13 -11 -45 -18 -70 -12 -40 -13 -68 -3 -144 5 -38 18 -54 62 -79 72 -40 150
-55 293 -57 72 0 133 -5 136 -9 6 -9 8 -9 95 -8 92 1 297 -1 440 -4 l135 -3 3
245 c1 135 0 254 -2 266 -3 12 -22 28 -46 39 -35 16 -46 17 -93 6 -64 -16
-207 -11 -382 13 -161 21 -175 24 -175 36 0 5 17 14 38 19 49 13 240 16 272 5
21 -8 208 -11 348 -6 41 2 42 3 42 36 l0 35 -53 -2 c-45 -2 -58 2 -86 26 -24
20 -43 27 -74 27 -23 0 -79 9 -125 20 -46 11 -93 20 -106 20 -49 0 -65 55 -18
66 55 12 63 16 78 40 22 33 38 31 31 -5 -7 -33 -8 -33 121 -56 46 -9 105 -27
130 -40 26 -14 59 -25 74 -25 27 0 28 2 28 50 0 39 -4 52 -20 60 -11 6 -20 15
-20 21 0 6 9 13 20 16 20 5 20 14 20 374 l0 369 -405 0 c-267 0 -405 -3 -405
-10z"/>
<path d="M3453 1581 c2 -10 1 -25 -4 -32 -8 -12 -10 -12 -18 0 -11 17 -31 -46
-31 -99 0 -63 99 -133 113 -81 3 12 0 18 -7 15 -7 -3 -13 7 -14 26 -1 16 2 30
8 30 5 0 10 -9 10 -20 0 -24 15 -27 24 -4 13 35 19 124 7 124 -6 0 -11 12 -12
28 l-1 27 -8 -28 c-5 -16 -7 -34 -4 -42 3 -7 -4 -15 -16 -18 -20 -5 -22 -2
-18 32 2 22 -2 43 -9 50 -18 16 -26 13 -20 -8z"/>
</g>
</svg>
