<?xml version="1.0" standalone="no"?>
<!DOCTYPE svg PUBLIC "-//W3C//DTD SVG 20010904//EN"
 "http://www.w3.org/TR/2001/REC-SVG-20010904/DTD/svg10.dtd">
<svg version="1.0" xmlns="http://www.w3.org/2000/svg"
 width="117.000000pt" height="133.000000pt" viewBox="0 0 117.000000 133.000000"
 preserveAspectRatio="xMidYMid meet">
<metadata>
Created by potrace 1.16, written by Peter Selinger 2001-2019
</metadata>
<g transform="translate(0.000000,133.000000) scale(0.100000,-0.100000)"
fill="#000000" stroke="none">
<path d="M543 1026 c-260 -150 -481 -280 -493 -291 -30 -27 -29 -114 2 -142
13 -11 236 -142 496 -292 512 -293 523 -298 570 -248 27 29 29 86 5 115 -13
15 -522 313 -834 488 -13 7 78 63 395 244 226 129 421 245 433 257 32 31 31
92 0 121 -51 48 -63 43 -574 -252z"/>
</g>
</svg>
