<?xml version="1.0" standalone="no"?>
<!DOCTYPE svg PUBLIC "-//W3C//DTD SVG 20010904//EN"
 "http://www.w3.org/TR/2001/REC-SVG-20010904/DTD/svg10.dtd">
<svg version="1.0" xmlns="http://www.w3.org/2000/svg"
 width="98.000000pt" height="38.000000pt" viewBox="0 0 98.000000 38.000000"
 preserveAspectRatio="xMidYMid meet">
<metadata>
Created by potrace 1.16, written by Peter Selinger 2001-2019
</metadata>
<g transform="translate(0.000000,38.000000) scale(0.100000,-0.100000)"
fill="#000000" stroke="none">
<path d="M335 358 c-3 -13 -4 -97 -3 -188 l3 -165 38 -3 37 -3 0 190 0 191
-35 0 c-28 0 -36 -5 -40 -22z"/>
<path d="M445 325 c-32 -64 -29 -85 20 -163 28 -45 32 -58 25 -88 -5 -20 -16
-44 -26 -55 -17 -18 -16 -19 28 -19 58 0 73 18 73 84 0 40 -7 62 -34 105 -39
64 -38 112 4 148 24 21 24 23 6 33 -45 24 -68 13 -96 -45z"/>
<path d="M224 346 c-72 -27 -150 -78 -192 -127 l-31 -36 47 -45 c47 -46 159
-111 174 -102 4 3 8 32 8 65 l0 59 35 0 c34 0 35 2 35 36 0 36 0 36 -38 32
-37 -3 -39 -2 -38 24 1 23 6 29 34 34 18 4 34 9 36 13 9 15 10 65 1 67 -5 2
-37 -7 -71 -20z"/>
<path d="M590 190 c0 -180 -1 -177 48 -164 20 6 22 12 22 70 0 62 1 64 25 64
23 0 25 -3 25 -51 l0 -51 33 19 c24 14 33 27 35 51 2 18 6 32 9 32 3 0 44 -21
90 -46 47 -25 87 -43 90 -40 3 3 -4 29 -16 57 -26 64 -26 63 4 127 13 28 21
52 17 52 -4 0 -41 -18 -82 -40 -89 -47 -110 -50 -110 -15 0 17 -9 29 -30 40
-40 21 -40 20 -40 -25 0 -36 -2 -40 -25 -40 -24 0 -25 3 -25 55 0 50 -2 56
-26 65 -14 6 -30 10 -35 10 -5 0 -9 -71 -9 -170z"/>
</g>
</svg>
