<?xml version="1.0" standalone="no"?>
<!DOCTYPE svg PUBLIC "-//W3C//DTD SVG 20010904//EN"
 "http://www.w3.org/TR/2001/REC-SVG-20010904/DTD/svg10.dtd">
<svg version="1.0" xmlns="http://www.w3.org/2000/svg"
 width="117.000000pt" height="133.000000pt" viewBox="0 0 117.000000 133.000000"
 preserveAspectRatio="xMidYMid meet">
<metadata>
Created by potrace 1.16, written by Peter Selinger 2001-2019
</metadata>
<g transform="translate(0.000000,133.000000) scale(0.100000,-0.100000)"
fill="#000000" stroke="none">
<path d="M52 1277 c-30 -32 -30 -90 1 -120 12 -12 207 -128 433 -257 l410
-235 -415 -238 c-229 -131 -424 -247 -433 -259 -26 -30 -23 -90 5 -116 50 -47
60 -42 569 250 260 149 483 280 496 291 32 29 32 115 0 144 -13 11 -236 142
-496 291 -513 294 -523 299 -570 249z"/>
</g>
</svg>
